<?xml version="1.0" encoding="UTF-8"?>
<svg version="1.1" xmlns="http://www.w3.org/2000/svg" width="1024" height="1024">
<path d="M0 0 C337.92 0 675.84 0 1024 0 C1024 337.92 1024 675.84 1024 1024 C686.08 1024 348.16 1024 0 1024 C0 686.08 0 348.16 0 0 Z " fill="#4B6675" transform="translate(0,0)"/>
<path d="M0 0 C337.92 0 675.84 0 1024 0 C1024 337.92 1024 675.84 1024 1024 C686.08 1024 348.16 1024 0 1024 C0 686.08 0 348.16 0 0 Z M341.34375 128.87890625 C339.20075688 130.81831503 337.01655362 132.69329299 334.8125 134.5625 C330.80468827 138.06733934 327.41721508 141.9274286 324 146 C323.07523542 147.0750941 322.14936979 148.14924167 321.22265625 149.22265625 C320.2314349 150.37731587 319.24055018 151.53226455 318.25 152.6875 C317.77780029 153.23422363 317.30560059 153.78094727 316.8190918 154.34423828 C314.20782399 157.41241961 311.95991425 160.47868739 310 164 C306.598063 162.73914223 303.75874832 161.26304744 300.75 159.25 C273.72194819 142.82433404 236.89088737 142.89048037 207.00390625 149.890625 C190.74380441 154.42517994 175.75549656 163.0085764 160.83203125 170.7265625 C160.03245499 171.13951569 159.23287872 171.55246887 158.40907288 171.97793579 C154.4522576 174.02295786 150.50051828 176.07673344 146.55786133 178.14892578 C135.93053916 183.69946634 125.10399258 188.48776509 114 193 C112.45803564 193.63222504 110.91660168 194.26574541 109.37573242 194.90063477 C108.70104416 195.17827164 108.0263559 195.45590851 107.33122253 195.74195862 C100.43963497 198.63264855 94.44325525 201.79937046 89 207 C88.23171875 207.72832031 87.4634375 208.45664063 86.671875 209.20703125 C75.28746524 220.87416642 71.56355318 234.77665793 71.63647461 250.61767578 C72.07194028 270.61813008 81.78642075 287.21102371 95.91015625 300.84375 C96.72806641 301.60171875 96.72806641 301.60171875 97.5625 302.375 C112.87298914 317.35662422 120.68572631 340.06876339 127 360 C127.29648438 360.93473145 127.59296875 361.86946289 127.8984375 362.83251953 C132.55022927 377.69986469 136.19589666 392.67823273 139 408 C139.12036621 408.63373535 139.24073242 409.2674707 139.36474609 409.92041016 C141.87550333 423.23655926 142.88320714 436.47437889 143.65673828 449.98828125 C145.07743442 474.2834887 149.63271169 498.00951198 166 517 C166.51949219 517.66257812 167.03898437 518.32515625 167.57421875 519.0078125 C176.26959269 529.74544133 187.5537321 535.71203645 200 541 C199.7834375 542.25167969 199.566875 543.50335937 199.34375 544.79296875 C195.09218693 571.15165173 195.19617682 598.91376537 202.578125 624.74609375 C205.40757429 634.92822381 205.40757429 634.92822381 205 639 C202.20739636 643.4039204 198.89881794 645.92919966 194.63330078 648.82617188 C177.42433063 661.19399377 169.32153722 685.20457146 165 705 C164.8242041 705.60134766 164.6484082 706.20269531 164.46728516 706.82226562 C161.36668287 721.27230343 163.01333685 739.84358482 167 754 C167.19867676 754.70592285 167.39735352 755.4118457 167.60205078 756.13916016 C174.13202841 778.73239362 185.54614163 797.30733381 202 814 C203.13115234 815.15048828 203.13115234 815.15048828 204.28515625 816.32421875 C213.1843879 824.82657214 232.90838013 842 246 842 C245.67773438 842.62777344 245.35546875 843.25554688 245.0234375 843.90234375 C241.78740932 853.69688706 242.95791534 867.09632563 246.73828125 876.52734375 C248.73862475 880.44752157 251.06435437 883.73027363 254 887 C254.50144531 887.59296875 255.00289062 888.1859375 255.51953125 888.796875 C265.83359193 900.13983224 281.29236928 905.37102391 296.29467773 906.17700195 C300.00925225 906.2441699 303.72234116 906.29259246 307.4375 906.3125 C308.10519409 906.31611542 308.77288818 906.31973083 309.46081543 906.32345581 C320.29050721 906.34705807 331.11134004 905.94432998 341 901 C345.88796397 900.77265284 350.1724761 901.32990247 354.9375 902.375 C380.77386529 907.5343121 407.8703551 907.21694492 434 904.75 C435.7955835 904.58624878 435.7955835 904.58624878 437.62744141 904.41918945 C452.72683653 902.81186169 467.61903243 899.34760136 477.53125 887.07421875 C481.40666228 881.6012296 483.44308222 876.68301331 484 870 C485.13695312 870.16242187 486.27390625 870.32484375 487.4453125 870.4921875 C494.14678934 871.233884 500.86828824 871.14927116 507.60107422 871.13037109 C509.86302443 871.12502829 512.12477469 871.13033324 514.38671875 871.13671875 C527.55773038 871.87516762 527.55773038 871.87516762 540 869 C540.0928125 870.7015625 540.0928125 870.7015625 540.1875 872.4375 C540.86651376 877.71148359 543.07483739 881.62377247 546 886 C546.46019531 886.69351563 546.92039062 887.38703125 547.39453125 888.1015625 C554.74764448 897.74437934 566.79215713 901.77139046 578.390625 903.4453125 C579.92611382 903.63809414 581.46267852 903.82242368 583 904 C583.87462891 904.10151367 584.74925781 904.20302734 585.65039062 904.30761719 C615.74479806 907.59498009 644.89746008 906.19033219 674.70336914 901.58203125 C679.57200025 900.89462289 683.06375155 901.22569244 687.6875 902.875 C696.39413915 905.91541367 704.58423972 906.24550039 713.7277832 906.29516602 C715.18491394 906.30659639 716.64200584 906.32690365 718.09887695 906.35668945 C736.00978249 906.72155256 752.82908865 902.67104889 766.96875 890.96484375 C776.06594551 882.16505656 780.10870947 871.77427563 780.36352539 859.26904297 C780.61185314 850.37212212 780.61185314 850.37212212 778 842 C778.55469971 841.83564453 779.10939941 841.67128906 779.6809082 841.50195312 C785.28021492 839.75302143 790.1674314 837.518813 795.1875 834.5 C795.91799561 834.06349121 796.64849121 833.62698242 797.40112305 833.17724609 C828.97501815 813.89333102 850.24484928 783.87366886 859 748 C864.72546011 718.47793231 858.63605044 687.88475878 842 663 C836.08020429 655.01262858 829.32115311 646.40553799 820.875 641 C819 639 819 639 818.9675293 637.17431641 C819.83322346 630.70711401 821.07874631 624.36510269 822.45117188 617.98828125 C825.213493 604.7333411 826.37344187 591.80922062 826.3125 578.3125 C826.31233887 577.57719055 826.31217773 576.8418811 826.31201172 576.08428955 C826.29392327 564.17789097 825.4119623 552.68653162 823 541 C824.01578125 540.59910156 825.0315625 540.19820312 826.078125 539.78515625 C835.50050112 535.94381437 843.22225506 531.66997017 851 525 C851.72574219 524.38640625 852.45148437 523.7728125 853.19921875 523.140625 C869.53826524 508.11769031 877.59891902 484.51912203 880 463 C880.09940614 460.28968885 880.14454479 457.5809101 880.18823242 454.86914062 C881.17385363 404.09990905 893.11400555 338.84643798 928.703125 300.49609375 C944.59262426 283.22842364 953.02431414 265.82173124 952.13183594 241.98925781 C951.16001302 227.32552976 943.58643184 214.79128011 933 205 C925.60183807 198.77267761 916.56947078 195.62776177 907.71411133 192.02734375 C892.96571472 186.00877457 878.72288218 178.97989557 864.578125 171.66796875 C863.85237778 171.29286667 863.12663055 170.91776459 862.37889099 170.53129578 C858.81182981 168.6850324 855.24934466 166.83061914 851.69360352 164.96264648 C840.57625456 159.1460825 829.307882 153.47730132 817.125 150.25 C815.98840942 149.94606323 815.98840942 149.94606323 814.82885742 149.63598633 C783.25867845 141.53186507 747.44690903 144.63272046 719 161 C718.34 161.66 717.68 162.32 717 163 C716.01 163 715.02 163 714 163 C712.23213327 160.97741491 710.64743336 158.97169683 709.0625 156.8125 C703.46649547 149.44125674 697.40216382 142.6743068 691 136 C689.82630859 134.76443359 689.82630859 134.76443359 688.62890625 133.50390625 C652.89394315 96.74976417 601.77154804 74.45872845 551.37841797 68.29248047 C549.82661314 68.10165085 548.27601909 67.90061787 546.72705078 67.68798828 C473.35643108 57.62872853 396.17812144 78.81651334 341.34375 128.87890625 Z " fill="#FEFEFE" transform="translate(0,0)"/>
<path d="M0 0 C2.37149718 0.4528037 4.74751129 0.8388654 7.13183594 1.21777344 C45.14210383 7.62078658 80.99312425 25.18813673 109.17089844 51.44042969 C111.17416768 53.3021636 113.23288141 55.06164754 115.32714844 56.81933594 C135.53125491 74.56346138 151.09718691 99.17147 162.36035156 123.37060547 C163.03284639 124.81307292 163.71453539 126.25127491 164.40332031 127.68603516 C186.94732856 174.65923086 199.63058649 233.72048973 182.06152344 284.42675781 C171.04269458 314.69923177 151.19233847 341.03043255 128.32714844 363.44433594 C125.78130363 362.26933064 123.771604 361.02459125 121.51464844 359.31933594 C117.59924093 357.01615505 115.8266767 356.9490175 111.32714844 357.44433594 C108.47982974 358.76262546 105.96392547 360.47197076 103.38964844 362.25683594 C98.16108048 365.81185644 93.3393145 368.42236724 87.32714844 370.44433594 C87.18019531 369.84105469 87.03324219 369.23777344 86.88183594 368.61621094 C85.74236342 364.55602149 84.81313617 361.94247337 81.82714844 358.88183594 C76.92363996 356.86789495 72.55602819 356.64725061 67.32714844 357.44433594 C63.6146632 359.56575607 61.95661091 361.57027083 60.32714844 365.44433594 C59.9631331 367.38314724 59.66666595 369.33516837 59.41699219 371.29199219 C58.36832411 378.61834545 56.68789596 385.70793552 54.88964844 392.88183594 C49.81161361 412.44522811 49.81161361 412.44522811 47.32714844 432.44433594 C47.24787109 433.82298828 47.24787109 433.82298828 47.16699219 435.22949219 C46.56041357 454.8246189 53.07427455 472.30534615 65.32714844 487.44433594 C66.09027344 488.49621094 66.85339844 489.54808594 67.63964844 490.63183594 C79.64076212 503.19114096 94.96824181 508.33643272 111.32714844 512.44433594 C110.37307034 522.26511804 107.05405484 528.3794699 99.40429688 534.72241211 C98.25361311 535.64146266 97.08924216 536.54370828 95.91015625 537.42602539 C91.70003308 540.67789277 90.10341926 543.42137142 88.32714844 548.44433594 C86.46761547 552.65275265 84.23539042 554.61072803 80.03027344 556.53417969 C73.99175548 558.5673801 67.6207431 559.5295301 61.32714844 560.44433594 C60.35853882 560.59008057 60.35853882 560.59008057 59.37036133 560.73876953 C10.35665552 567.18900796 -42.34419332 554.24237807 -81.56738281 524.22949219 C-109.62725036 501.89933186 -125.28940091 471.92978405 -134.07910156 437.69311523 C-134.49616508 436.11352145 -134.9357107 434.5397755 -135.39160156 432.97094727 C-137.5720138 425.39721304 -138.944386 417.7867904 -140.17285156 410.00683594 C-140.33293198 409.01177536 -140.33293198 409.01177536 -140.49624634 407.99661255 C-142.28937248 396.81787572 -143.64797847 385.63157545 -144.68457031 374.35473633 C-145.34246132 366.71107775 -145.34246132 366.71107775 -147.67285156 359.44433594 C-149.54032419 358.05195547 -149.54032419 358.05195547 -151.67285156 357.44433594 C-152.66285156 357.11433594 -153.65285156 356.78433594 -154.67285156 356.44433594 C-158.62947654 355.83857359 -162.14284239 355.676498 -165.78222656 357.50292969 C-168.52186999 359.59162478 -170.32223121 361.27280207 -171.32519531 364.62402344 C-171.68182609 367.04965409 -171.68182609 367.04965409 -171.67285156 370.44433594 C-178.37252509 369.07287336 -183.50482652 366.42576798 -189.17285156 362.75683594 C-194.27426182 359.53075623 -198.22032245 357.44051147 -204.42675781 357.63964844 C-207.8259632 358.85745072 -209.99435081 361.03868103 -212.67285156 363.44433594 C-222.48056605 353.99740325 -231.69004371 344.49285307 -239.67285156 333.44433594 C-240.12998535 332.8155957 -240.58711914 332.18685547 -241.05810547 331.5390625 C-262.48264679 301.8447517 -275.11656399 269.92061285 -275.11035156 233.00683594 C-275.1117514 232.20563324 -275.11315125 231.40443054 -275.11459351 230.57894897 C-275.08299151 208.37428853 -271.61079803 186.56983155 -264.67285156 165.44433594 C-264.41777832 164.65446289 -264.16270508 163.86458984 -263.89990234 163.05078125 C-259.91439594 150.82983215 -255.1723591 139.05914658 -249.67285156 127.44433594 C-249.19162842 126.42412354 -249.19162842 126.42412354 -248.70068359 125.38330078 C-237.53259125 101.90705182 -223.55569121 80.65839043 -205.28076172 62.08300781 C-203.78368163 60.55728635 -202.30971895 59.01275198 -200.84082031 57.45996094 C-151.09878429 5.89720618 -69.18622563 -13.3547509 0 0 Z " fill="#A5B6C6" transform="translate(554.6728515625,96.5556640625)"/>
<path d="M0 0 C3.71468834 0.4315042 5.9332561 1.4368887 8.875 3.6875 C26.82460963 15.99833424 51.02495967 19.54904491 72.125 15.8125 C78.76668518 14.52058484 85.00154709 12.42195391 91.3046875 9.98828125 C94 9 94 9 96 9 C96.1451001 9.53665283 96.2902002 10.07330566 96.43969727 10.6262207 C101.62489688 29.65208558 107.76713287 47.5476292 117 65 C120.33018186 71.66036372 116.77276634 81.68489755 115.50976562 88.58007812 C113.10186439 102.24820114 112.73203968 115.9680528 112.6875 129.8125 C112.68454926 130.6290506 112.68159851 131.4456012 112.67855835 132.28689575 C112.6381789 182.01449252 126.72794913 228.46662421 145.23046875 274.14453125 C152.60439326 292.35289524 159.25135469 309.32715133 159.5 329.1875 C159.52791626 330.65848145 159.52791626 330.65848145 159.55639648 332.15917969 C159.50581124 337.83454899 159.22069926 341.81186787 155 346 C149.05012432 348.72678458 142.83823534 349.63650382 136.375 350.16796875 C135.47185059 350.24734177 134.56870117 350.32671478 133.63818359 350.40849304 C124.07019745 351.18196623 114.51134109 351.33739363 104.91601562 351.31567383 C102.00092509 351.31250101 99.08684249 351.33615696 96.171875 351.36132812 C86.52267681 351.39607318 77.01484956 351.01870409 67.4375 349.79296875 C66.57495605 349.69325272 65.71241211 349.59353668 64.82373047 349.49079895 C59.14462363 348.66357339 55.68333053 347.53426619 52 343 C51.25178471 339.7004944 51.39457914 336.55225821 51.5546875 333.1875 C51.57266388 332.22336182 51.59064026 331.25922363 51.60916138 330.26586914 C51.6691056 327.1757707 51.76827278 324.0888113 51.875 321 C52.77144693 292.98040246 49.49086713 263.98607476 30 242 C28.12518569 240.20228844 26.19408868 238.51565827 24.203125 236.84765625 C21.74759892 234.78832321 19.37440672 232.6522613 17 230.5 C13.91048086 227.70517345 10.7913236 224.95726553 7.625 222.25 C4.7111308 219.71569292 2.3483205 217.07710962 0 214 C-1.65822801 212.32493719 -3.32606071 210.65936217 -5 209 C-32.76292108 180.7331315 -51.6251853 146.08968086 -64.25 108.875 C-64.67458496 107.6367749 -65.09916992 106.3985498 -65.53662109 105.12280273 C-68.41394553 96.47653998 -70.4028512 87.95408391 -72 79 C-72.21269531 77.85490967 -72.42539063 76.70981934 -72.64453125 75.5300293 C-75.8319965 57.74242536 -75.63048513 36.53090522 -71 19 C-70.36610352 18.9498877 -69.73220703 18.89977539 -69.07910156 18.84814453 C-32.22402804 16.48635174 -32.22402804 16.48635174 0 0 Z " fill="#A5B6C6" transform="translate(298,527)"/>
<path d="M0 0 C-0.69816407 3.67070864 -2.25702456 6.58120669 -4.02734375 9.85546875 C-4.65703847 11.03400289 -5.2859096 12.21297734 -5.9140625 13.39233398 C-6.24438477 14.01050995 -6.57470703 14.62868591 -6.91503906 15.26559448 C-19.79813548 39.48177056 -29.78360355 64.88387118 -35.8125 91.6875 C-36.00755127 92.54037598 -36.20260254 93.39325195 -36.40356445 94.27197266 C-39.5884906 109.31853599 -40.35461419 124.62349523 -40.31567383 139.96166992 C-40.31249651 142.56536178 -40.33617419 145.16792991 -40.36132812 147.77148438 C-40.41692511 162.37656223 -38.82752844 176.62930354 -34.4375 190.625 C-34.06177856 191.84014282 -34.06177856 191.84014282 -33.6784668 193.07983398 C-21.66781557 230.55859774 0.10213833 261.69666448 27 290 C18.04090276 299.00559775 8.75570421 306.29310077 -2 313 C-2.63856934 313.39896484 -3.27713867 313.79792969 -3.93505859 314.20898438 C-24.79127202 327.0419456 -50.35529457 336.0154711 -75.0859375 331.30859375 C-90.71437283 327.52036247 -103.54067783 319.38153003 -112.40625 305.76953125 C-120.99105971 290.85132025 -122.96478678 276.19289641 -123.4375 259.25 C-125.02594325 203.47417656 -140.766969 131.80172435 -182.44921875 91.65234375 C-191.64902165 82.08623936 -195.50571014 71.90164795 -195.42431641 58.81835938 C-195.16863616 51.57694563 -193.26233767 47.55238096 -188.5625 42.25 C-184.51631622 38.69725327 -180.99831325 35.75781997 -175.9375 33.8125 C-156.11818076 25.91265595 -137.17358477 16.17069436 -118.1796875 6.49389648 C-81.07653973 -12.38131063 -37.68303756 -26.14741382 0 0 Z " fill="#A5B6C6" transform="translate(294,187)"/>
<path d="M0 0 C3.21351278 1.42289869 6.29342045 2.97980517 9.390625 4.640625 C28.61828358 14.52067542 48.76502131 17.66560452 70.140625 18.390625 C81.61793095 62.76954136 66.90541045 110.1352925 46.140625 149.390625 C45.80482422 150.03032227 45.46902344 150.67001953 45.12304688 151.32910156 C35.74153066 169.05073229 24.09156512 185.12214823 11.140625 200.390625 C10.49738281 201.15375 9.85414063 201.916875 9.19140625 202.703125 C7.53629108 204.62674554 5.84602082 206.51143088 4.140625 208.390625 C3.29628906 209.33808594 2.45195313 210.28554688 1.58203125 211.26171875 C-7.31705929 221.15312671 -16.79761658 230.61606354 -27.234375 238.890625 C-39.7218749 249.69502708 -46.05402782 267.79888645 -49.41970825 283.41627502 C-49.71288481 284.73280198 -50.03276039 286.04366446 -50.37887573 287.34727478 C-51.94799038 293.51407666 -52.06030262 299.29263952 -51.9140625 305.62890625 C-51.8887966 307.76887406 -51.86407277 309.90884833 -51.83984375 312.04882812 C-51.79002693 315.39124098 -51.73377621 318.73331131 -51.66748047 322.07543945 C-51.60720561 325.32245096 -51.57159609 328.56901536 -51.5390625 331.81640625 C-51.51214325 332.81746902 -51.485224 333.8185318 -51.45748901 334.84992981 C-51.40803988 341.66738867 -51.40803988 341.66738867 -53.44189453 344.92651367 C-66.46059217 352.81109555 -87.41363771 350.73673323 -102.05371094 350.70629883 C-105.22365678 350.7031357 -108.39266829 350.72671405 -111.5625 350.75195312 C-149.22487342 350.86861264 -149.22487342 350.86861264 -157.109375 343.203125 C-159.27113787 339.72886325 -159.59551712 337.48042215 -159.859375 333.390625 C-159.9109375 332.62105469 -159.9625 331.85148437 -160.015625 331.05859375 C-160.91191429 306.14922063 -148.76150972 281.16295125 -139.3046875 258.6953125 C-134.78368862 247.7716017 -131.25316418 236.56762001 -127.75830078 225.28027344 C-127.0041033 222.8558624 -126.23186303 220.43875032 -125.44921875 218.0234375 C-119.22076929 198.38906177 -115.75019032 177.75312238 -112.859375 157.390625 C-111.92424072 157.20270386 -111.92424072 157.20270386 -110.97021484 157.01098633 C-82.55754334 151.95990784 -82.55754334 151.95990784 -60.859375 134.390625 C-60.15671061 133.03366804 -59.48788979 131.65847769 -58.859375 130.265625 C-57.50712825 127.31008148 -56.22949458 125.64224033 -53.671875 123.640625 C-43.84211827 115.8402374 -36.438283 103.3321924 -34.14453125 90.97265625 C-32.66628436 78.63226445 -32.66628436 78.63226445 -36.43359375 67.16015625 C-42.91123338 59.12078432 -49.08116405 56.33994066 -58.984375 54.2421875 C-71.13274509 51.5724852 -81.56362218 45.60467895 -88.859375 35.390625 C-94.50880136 26.30241737 -97.47692014 16.09474068 -96.859375 5.390625 C-93.50168256 6.68021661 -90.34745925 8.14322823 -87.171875 9.828125 C-69.87396076 18.55430495 -51.22236332 17.65275027 -32.859375 13.390625 C-31.98023438 13.19726562 -31.10109375 13.00390625 -30.1953125 12.8046875 C-21.76606234 10.63394415 -11.30684677 6.35862955 -4.7578125 0.515625 C-2.859375 -0.609375 -2.859375 -0.609375 0 0 Z " fill="#A5B6C6" transform="translate(725.859375,527.609375)"/>
<path d="M0 0 C7.91322814 4.21712537 15.88944842 8.3037935 23.89648438 12.33935547 C24.9323468 12.86264938 24.9323468 12.86264938 25.98913574 13.39651489 C34.67194893 17.76904223 43.37108273 21.7372866 52.45898438 25.21435547 C61.48326714 28.69962967 68.80810573 32.49634233 73.75976562 41.23388672 C77.42567728 49.65791378 77.05153188 59.20702876 74.11523438 67.81201172 C70.88868848 75.52394528 66.21460069 81.44663584 60.57226562 87.53466797 C51.46808938 97.56784179 44.23581835 108.21823509 38.08398438 120.27685547 C37.7373877 120.95619141 37.39079102 121.63552734 37.03369141 122.33544922 C31.50309301 133.32910464 27.07796521 144.64576809 23.08398438 156.27685547 C22.82907227 157.01033203 22.57416016 157.74380859 22.31152344 158.49951172 C12.21713311 187.85069089 5.5899201 219.2013674 4.79394531 250.28369141 C4.20224781 272.43494161 0.44197752 292.92080597 -14.85351562 309.96435547 C-27.79223963 322.20012673 -45.42916647 325.84663915 -62.73217773 325.69262695 C-94.55578628 324.64875896 -122.43132138 305.11238953 -145.91601562 285.27685547 C-144.61695244 282.42517795 -143.23047263 280.33595695 -141.04492188 278.09716797 C-140.47620361 277.50548828 -139.90748535 276.91380859 -139.3215332 276.30419922 C-138.7133374 275.67642578 -138.1051416 275.04865234 -137.47851562 274.40185547 C-132.84151551 269.52042711 -128.37180047 264.58603256 -124.22851562 259.27685547 C-123.78709229 258.71240723 -123.34566895 258.14795898 -122.89086914 257.56640625 C-120.5537071 254.53225609 -118.32909171 251.44550948 -116.17773438 248.27685547 C-111.38612189 241.28573091 -107.70040135 236.33091132 -99.79882812 232.70654297 C-78.95794515 222.37082052 -64.33589776 201.34899535 -53.91601562 181.27685547 C-53.59503906 180.67147949 -53.2740625 180.06610352 -52.94335938 179.44238281 C-41.77922099 158.17096223 -37.79221053 134.34614353 -37.66601562 110.52685547 C-37.64539063 109.53814453 -37.62476563 108.54943359 -37.60351562 107.53076172 C-37.56567703 100.44548501 -38.26634305 95.40828669 -42.97851562 89.83935547 C-47.29225599 87.54481272 -51.13119842 87.64623706 -55.91601562 88.27685547 C-59.61027476 89.61307686 -60.58924554 90.71087092 -62.54882812 94.10498047 C-64.76762029 99.52179268 -64.05397262 105.22622365 -63.85351562 110.96435547 C-63.65109903 122.93516028 -64.77087487 133.74033339 -67.91601562 145.27685547 C-68.09261719 145.94571777 -68.26921875 146.61458008 -68.45117188 147.30371094 C-71.38974338 158.1029612 -76.46417133 167.57281018 -81.91601562 177.27685547 C-83.48946695 174.12995282 -82.27849768 171.59391773 -81.54101562 168.21435547 C-79.17932655 157.34396418 -78.6752839 146.7623236 -78.66601562 135.65185547 C-78.66534088 134.92209503 -78.66466614 134.19233459 -78.66397095 133.44046021 C-78.68284518 120.51831702 -79.61705334 108.01165838 -81.91601562 95.27685547 C-82.16544922 93.85083008 -82.16544922 93.85083008 -82.41992188 92.39599609 C-88.11625331 60.55983261 -99.27354268 30.81342068 -114.70117188 2.44482422 C-116.32397777 -0.54832164 -117.76274793 -3.51093564 -118.91601562 -6.72314453 C-84.6934016 -34.94179118 -34.22694722 -18.27333819 0 0 Z " fill="#A5B6C6" transform="translate(848.916015625,193.72314453125)"/>
<path d="M0 0 C3.28343002 2.76106615 6.50827142 5.52961892 9.609375 8.49609375 C17.16883509 15.69801181 25.09888214 21.55251587 34 27 C34.63421875 27.38929688 35.2684375 27.77859375 35.921875 28.1796875 C69.46154401 48.49436507 107.58161561 55.47589004 146 60 C145.55185977 69.6090028 144.2988841 78.61141363 142.1875 88 C141.8152832 89.7325 141.8152832 89.7325 141.43554688 91.5 C138.44594811 105.13196179 134.34500403 118.39623501 129.9375 131.625 C129.58492126 132.68732849 129.58492126 132.68732849 129.22521973 133.77111816 C125.46098486 145.07644384 121.2891937 156.15682292 116.86083984 167.22070312 C110.48073416 183.20906785 105.32202889 199.10098349 102 216 C96.10217988 217.28542233 90.25992091 217.12621861 84.2578125 217.09765625 C82.57254959 217.09553383 82.57254959 217.09553383 80.85324097 217.09336853 C77.27713317 217.08778664 73.70108877 217.07523741 70.125 217.0625 C67.69531341 217.05748266 65.26562583 217.05292016 62.8359375 217.04882812 C56.89060349 217.03782314 50.94530628 217.02110301 45 217 C43.72721184 213.26430185 42.56453757 209.53358319 41.5546875 205.71875 C37.18281875 189.47775065 32.03588381 173.74710284 25.62109375 158.1953125 C9.24353172 118.45260085 -2.18978334 76.65236582 -2.18530273 33.42797852 C-2.18749337 31.06964152 -2.20573549 28.71177073 -2.22460938 26.35351562 C-2.25678031 17.35449226 -1.72865797 8.86071879 0 0 Z " fill="#94A7B8" transform="translate(439,626)"/>
<path d="M0 0 C11.90699057 5.6499594 18.89077046 20.43437744 23.1953125 32.29296875 C30.20378479 56.95870861 25.79381445 82.22975334 14.1875 104.6875 C11.01565157 110.27676744 7.1736575 115.13073291 3 120 C2.0409375 121.16015625 2.0409375 121.16015625 1.0625 122.34375 C-11.57218904 137.22007742 -30.38056871 149.02964738 -49.125 154.625 C-53.23811483 155.9545702 -55.60758955 157.21844801 -58 161 C-58.94894867 167.64264072 -58.65247471 172.33493718 -55 178 C-52.6347007 184.69476526 -52.68903423 194.1683118 -55.625 200.625 C-58.98270105 206.158113 -64.02018403 208.19147029 -70 210 C-82.26053639 212.51418594 -94.63444485 212.85146278 -107 211 C-107.10267687 203.90580832 -107.17199211 196.81181294 -107.21972656 189.71704102 C-107.23965733 187.31104371 -107.26681193 184.90509365 -107.30175781 182.49926758 C-107.60354243 161.1657579 -106.5932915 138.14088698 -92 121 C-86.25608871 115.14444807 -80.06863013 109.735134 -73.8125 104.4375 C-68.89509354 100.19255938 -64.64299682 95.29698349 -60.31982422 90.46386719 C-59.1464854 89.16247252 -57.95164355 87.88053764 -56.75390625 86.6015625 C-49.56659119 78.87355034 -43.29557689 70.45502531 -37 62 C-36.5551123 61.40703125 -36.11022461 60.8140625 -35.65185547 60.203125 C-21.58251224 41.37802487 -10.53017674 20.93882394 0 0 Z " fill="#A5B6C6" transform="translate(807,667)"/>
<path d="M0 0 C2.59610377 2.31830234 3.94587485 4.59777645 5.42578125 7.734375 C5.8851709 8.68932861 6.34456055 9.64428223 6.81787109 10.62817383 C7.31109863 11.65837646 7.80432617 12.6885791 8.3125 13.75 C20.51738667 38.62313132 35.74449103 61.18811828 54 82 C54.58652344 82.68578125 55.17304688 83.3715625 55.77734375 84.078125 C63.29627722 92.82876639 71.00069426 101.72771261 79.8359375 109.171875 C97.3347518 123.95426687 106.64795842 138.52692088 109 162 C109.44931984 170.5133815 109.28638448 179.04164328 109.1875 187.5625 C109.17241389 189.84569422 109.15873249 192.12889817 109.14648438 194.41210938 C109.11381812 199.94162278 109.06393549 205.47076423 109 211 C97.15617682 212.02118475 86.26262662 212.74325541 74.5625 210.25 C73.80501465 210.09313721 73.0475293 209.93627441 72.26708984 209.7746582 C66.84747563 208.52106428 62.21062633 206.70726019 58.57421875 202.25390625 C56.77072725 198.81376607 55.35991728 195.8691108 55 192 C54.88785156 190.92105469 54.88785156 190.92105469 54.7734375 189.8203125 C54.47331081 184.74975101 55.01321682 181.46075514 57.5 177 C60.18191155 172.12658358 61.5066565 167.49486487 60 162 C56.6240745 156.95188711 53.62305306 155.01192819 47.8125 153.25 C33.79529241 148.46965957 20.86031898 141.10635296 10 131 C9.48099121 130.52723633 8.96198242 130.05447266 8.42724609 129.56738281 C0.08455139 121.91196375 -6.54908966 113.93450638 -12 104 C-12.49089111 103.10692139 -12.49089111 103.10692139 -12.99169922 102.19580078 C-18.17106357 92.52574822 -20.93472298 82.73721979 -23 72 C-23.19207031 71.02804687 -23.38414062 70.05609375 -23.58203125 69.0546875 C-26.54008527 47.43601234 -21.52768488 26.26923985 -8.3125 8.8125 C-5.70802096 5.69429344 -2.96054566 2.78111865 0 0 Z " fill="#8DA0B2" transform="translate(215,667)"/>
<path d="M0 0 C3.58806179 0.68132859 6.17088917 1.6303889 9.3515625 3.41015625 C10.29773438 3.920625 11.24390625 4.43109375 12.21875 4.95703125 C14.4765625 6.66015625 14.4765625 6.66015625 15.53125 8.4375 C15.44421502 11.97485013 13.53197812 14.54180109 11.7265625 17.47265625 C-2.02930805 40.96315617 -12.00426741 66.24481768 -18.5234375 92.66015625 C-18.70745117 93.3871875 -18.89146484 94.11421875 -19.08105469 94.86328125 C-19.26571289 95.600625 -19.45037109 96.33796875 -19.640625 97.09765625 C-19.80288574 97.74476563 -19.96514648 98.391875 -20.13232422 99.05859375 C-23.78987176 115.10859142 -24.88083018 131.18923277 -24.83911133 147.62182617 C-24.83593401 150.22551803 -24.85961169 152.82808616 -24.88476562 155.43164062 C-24.94036261 170.03671848 -23.35096594 184.28945979 -18.9609375 198.28515625 C-18.58521606 199.50029907 -18.58521606 199.50029907 -18.2019043 200.73999023 C-6.19125307 238.21875399 15.57870083 269.35682073 42.4765625 297.66015625 C39.29879145 300.88308213 36.06068515 303.98160048 32.6640625 306.97265625 C31.47876953 308.01873047 31.47876953 308.01873047 30.26953125 309.0859375 C29.67785156 309.60542969 29.08617187 310.12492187 28.4765625 310.66015625 C23.7875101 308.19223393 20.40419448 304.89644185 16.7265625 301.16015625 C16.10458984 300.53069092 15.48261719 299.90122559 14.84179688 299.25268555 C9.69070793 293.98191268 4.94718299 288.52374332 0.4765625 282.66015625 C-0.28841553 281.66918945 -0.28841553 281.66918945 -1.06884766 280.65820312 C-24.97993506 249.56758241 -43.82117734 213.86128732 -49.5234375 174.66015625 C-49.69842773 173.573396 -49.87341797 172.48663574 -50.05371094 171.36694336 C-51.6295234 160.90596145 -51.88124425 150.60255174 -51.8359375 140.03515625 C-51.83411469 139.15242035 -51.83229187 138.26968445 -51.83041382 137.36019897 C-51.78480678 124.23918859 -51.28676875 111.52759733 -48.5234375 98.66015625 C-48.27400391 97.41806396 -48.27400391 97.41806396 -48.01953125 96.15087891 C-41.53131395 64.20842391 -28.18943216 35.23943928 -9.7734375 8.47265625 C-9.25499268 7.68769775 -8.73654785 6.90273926 -8.20239258 6.09399414 C-4.46564386 0.83668937 -4.46564386 0.83668937 0 0 Z " fill="#94A7B7" transform="translate(278.5234375,179.33984375)"/>
<path d="M0 0 C0.33 0.66 0.66 1.32 1 2 C0.02491783 3.995099 -1.1206444 5.84436854 -2.28515625 7.734375 C-3.96168766 13.04797181 0.24085272 18.79900224 2.625 23.5 C2.97763916 24.19778564 3.33027832 24.89557129 3.69360352 25.61450195 C9.66496022 37.3198463 16.34232076 48.32812787 24 59 C24.62390625 59.88945313 25.2478125 60.77890625 25.890625 61.6953125 C34.46373952 73.76251151 44.00213061 85.09681173 54 96 C55.21294497 97.3709336 56.42149992 98.74576761 57.625 100.125 C58.18574219 100.76566406 58.74648438 101.40632812 59.32421875 102.06640625 C60.4613706 103.37850454 61.58870114 104.6991668 62.70703125 106.02734375 C66.34359444 110.30420475 70.14335164 114.00311424 74.49609375 117.5546875 C74.99238281 118.03164063 75.48867188 118.50859375 76 119 C76 119.66 76 120.32 76 121 C76.78890625 121.32291016 76.78890625 121.32291016 77.59375 121.65234375 C86.21794196 126.48245126 94.18192668 134.47138959 97 144 C97.4021875 144.96873047 97.4021875 144.96873047 97.8125 145.95703125 C103.63371507 160.59402876 102.50703267 178.54936592 103 194 C107.95 194 112.9 194 118 194 C118 194.33 118 194.66 118 195 C107.60506054 196.63057874 97.84730437 196.44969476 87.5625 194.25 C86.42675537 194.01470581 86.42675537 194.01470581 85.26806641 193.7746582 C79.8480168 192.52151966 75.21081347 190.70748937 71.57421875 186.25390625 C69.77072725 182.81376607 68.35991728 179.8691108 68 176 C67.88785156 174.92105469 67.88785156 174.92105469 67.7734375 173.8203125 C67.47331081 168.74975101 68.01321682 165.46075514 70.5 161 C73.18191155 156.12658358 74.5066565 151.49486487 73 146 C69.6240745 140.95188711 66.62305306 139.01192819 60.8125 137.25 C46.79529241 132.46965957 33.86031898 125.10635296 23 115 C22.48099121 114.52723633 21.96198242 114.05447266 21.42724609 113.56738281 C13.08455139 105.91196375 6.45091034 97.93450638 1 88 C0.50910889 87.10692139 0.50910889 87.10692139 0.00830078 86.19580078 C-5.17106357 76.52574822 -7.93472298 66.73721979 -10 56 C-10.19207031 55.02804687 -10.38414062 54.05609375 -10.58203125 53.0546875 C-13.20571328 33.87974031 -9.42568215 16.70675684 0 0 Z " fill="#99ABBC" transform="translate(202,683)"/>
<path d="M0 0 C3.71468834 0.4315042 5.9332561 1.4368887 8.875 3.6875 C26.82460963 15.99833424 51.02495967 19.54904491 72.125 15.8125 C78.76668518 14.52058484 85.00154709 12.42195391 91.3046875 9.98828125 C94 9 94 9 96 9 C96.1451001 9.53665283 96.2902002 10.07330566 96.43969727 10.6262207 C101.62489688 29.65208558 107.76713287 47.5476292 117 65 C119.61063678 70.22127356 117.63666149 77.14768057 116.625 82.6875 C116.49867188 83.43322266 116.37234375 84.17894531 116.2421875 84.94726562 C115.30395682 90.20604857 113.92406834 93.61389749 111 98 C98.51555075 85.07397859 82 60.70019663 82 42 C80.88625 42.309375 79.7725 42.61875 78.625 42.9375 C53.64891754 49.06206978 24.56138275 44.61162714 2.375 31.875 C-0.06612715 30.59771488 -1.3855593 29.94608199 -4.13671875 30.1875 C-6.53962408 30.94676631 -8.72509025 31.91566298 -11 33 C-19.1220991 36.55116888 -27.10076777 38.87427947 -35.75 40.75 C-37.205271 41.06590088 -37.205271 41.06590088 -38.68994141 41.38818359 C-47.35475768 43.19637718 -55.7144488 44.16942223 -64.5625 44.0625 C-67.016875 44.041875 -69.47125 44.02125 -72 44 C-72.33 50.93 -72.66 57.86 -73 65 C-73.33 65 -73.66 65 -74 65 C-74.5696861 32.51474565 -74.5696861 32.51474565 -71 19 C-70.36610352 18.9498877 -69.73220703 18.89977539 -69.07910156 18.84814453 C-32.22402804 16.48635174 -32.22402804 16.48635174 0 0 Z " fill="#94A6B7" transform="translate(298,527)"/>
<path d="M0 0 C4.6309837 4.15702374 9.31349929 8.761571 10.16796875 15.16015625 C10.27602994 22.72443954 9.21227497 27.75237561 4.20703125 33.515625 C-6.96731655 44.34077443 -21.09263699 45.11770946 -35.75 44.921875 C-46.13601875 44.56520496 -55.27070775 40.33993002 -62.765625 33.1015625 C-67.26065047 28.00370563 -68.59449693 23.56696825 -68.41796875 16.9140625 C-67.75338857 10.88092056 -64.62177946 5.67213998 -60.16796875 1.64453125 C-43.39489015 -10.59205634 -17.20921935 -12.99740276 0 0 Z " fill="#FEA0A6" transform="translate(679.16796875,387.35546875)"/>
<path d="M0 0 C4.90895662 3.47754351 8.7920166 7.48695678 11.125 13.125 C11.99378563 20.49275349 11.40075754 26.92111116 6.71875 32.9296875 C-1.62110391 42.09565902 -13.34118419 45.34050124 -25.359375 46.4453125 C-37.46676154 46.84889205 -49.2726183 43.75144034 -58.875 36.125 C-65.06813025 29.35047385 -66.24719284 24.69851622 -66.14453125 15.54296875 C-65.80180147 11.19675781 -64.92278635 9.24898101 -61.875 6.125 C-61.32714844 5.55523437 -60.77929688 4.98546875 -60.21484375 4.3984375 C-44.49176285 -10.77578842 -17.92040782 -11.07277231 0 0 Z " fill="#FEA0A6" transform="translate(401.875,386.875)"/>
<path d="M0 0 C5.45601518 3.11929757 8.67123149 7.41575726 10.6875 13.375 C11.13984334 17.09574921 11.10348683 20.81681776 11.125 24.5625 C11.15787109 25.55314453 11.19074219 26.54378906 11.22460938 27.56445312 C11.27694838 34.82054287 9.81256211 40.34093545 5.6875 46.375 C1.26947229 50.75023956 -2.76447618 51.7054843 -8.9375 51.9375 C-15.62306292 51.65925692 -18.81025264 49.87724736 -23.5 45.1875 C-29.53157811 35.82815466 -29.75705183 24.20488962 -27.7734375 13.453125 C-25.96622151 7.53498911 -23.19136785 3.76536221 -18.1875 0.0625 C-12.36148262 -2.99397593 -5.91973184 -2.65829467 0 0 Z " fill="#39444F" transform="translate(634.3125,319.625)"/>
<path d="M0 0 C5.99557656 3.23944006 9.31587174 7.98386373 11.25 14.36328125 C13.45056121 26.18931882 12.44629678 36.99103608 5.91796875 47.21875 C1.60486082 51.40500182 -2.16613919 52.50557241 -8.08203125 52.78125 C-13.93883186 52.61412045 -17.95611518 51.37851851 -22.20703125 47.28125 C-27.31981247 40.60333167 -27.41249539 34.08110601 -27.45703125 26.03125 C-27.47765625 25.11472656 -27.49828125 24.19820313 -27.51953125 23.25390625 C-27.55905417 16.32751485 -26.95180723 10.44997158 -22.234375 5.00390625 C-21.54472656 4.45605469 -20.85507812 3.90820312 -20.14453125 3.34375 C-19.45230469 2.77785156 -18.76007813 2.21195312 -18.046875 1.62890625 C-13.06362908 -2.02124203 -5.76674309 -1.87801899 0 0 Z " fill="#39444F" transform="translate(406.20703125,318.71875)"/>
<path d="M0 0 C2.02745493 1.91335573 3.91989569 3.83669955 5.8125 5.875 C12.54935268 12.90190481 20.0080646 18.48412758 28 24 C25.73344602 26.26655398 24.35325507 26.67309078 21.3125 27.5625 C20.48363281 27.81128906 19.65476562 28.06007813 18.80078125 28.31640625 C4.473092 31.81340153 -11.04873952 31.44229907 -23.875 23.75 C-28.1593047 20.81732833 -32.44578977 17.62344383 -35 13 C-35 11.68 -35 10.36 -35 9 C-33.76765625 8.69707031 -32.5353125 8.39414062 -31.265625 8.08203125 C-22.61354664 5.90654154 -14.41341871 3.69652065 -6.34765625 -0.1796875 C-3.61833257 -1.13336133 -2.68139211 -0.94256565 0 0 Z " fill="#F2EBD4" transform="translate(669,487)"/>
<path d="M0 0 C10 3.33333333 20 6.66666667 30 10 C30.495 15.445 30.495 15.445 31 21 C18.61837162 30.55774822 4.12624861 32.64841262 -11.09960938 30.73632812 C-23.62787569 28.86348609 -23.62787569 28.86348609 -28 25 C-27.34515625 24.47792969 -26.6903125 23.95585937 -26.015625 23.41796875 C-16.90642568 16.07142523 -8.2332159 8.3230328 0 0 Z " fill="#F3EBD4" transform="translate(356,486)"/>
<path d="M0 0 C0.66 0.33 1.32 0.66 2 1 C-3.61 6.61 -9.22 12.22 -15 18 C-15 12.78391019 -10.50427167 9.58349868 -7 6 C-4.72395669 3.90689101 -2.40160434 1.95130352 0 0 Z " fill="#435E6E" transform="translate(707,758)"/>
<path d="M0 0 C1.32 0.66 2.64 1.32 4 2 C3.25363281 2.68449219 2.50726562 3.36898437 1.73828125 4.07421875 C-1.16146481 6.97396481 -2.93276254 10.16359787 -4.8125 13.8125 C-5.41707031 14.97394531 -6.02164063 16.13539063 -6.64453125 17.33203125 C-7.09183594 18.21246094 -7.53914062 19.09289062 -8 20 C-8.33 19.34 -8.66 18.68 -9 18 C-8.28735352 16.12060547 -8.28735352 16.12060547 -7.12890625 13.8671875 C-6.71962891 13.06152344 -6.31035156 12.25585938 -5.88867188 11.42578125 C-5.2322168 10.16314453 -5.2322168 10.16314453 -4.5625 8.875 C-4.12873047 8.02550781 -3.69496094 7.17601562 -3.24804688 6.30078125 C-2.17240532 4.19677908 -1.08949234 2.0968542 0 0 Z " fill="#B1C0D0" transform="translate(807,667)"/>
<path d="M0 0 C0.99 1.485 0.99 1.485 2 3 C5.10811287 3.80541207 5.10811287 3.80541207 8.625 4.1875 C9.81351562 4.34605469 11.00203125 4.50460937 12.2265625 4.66796875 C13.59941406 4.83232422 13.59941406 4.83232422 15 5 C15 5.33 15 5.66 15 6 C12.68756208 6.02685412 10.3750373 6.04632841 8.0625 6.0625 C6.77472656 6.07410156 5.48695313 6.08570313 4.16015625 6.09765625 C1 6 1 6 0 5 C-0.04063832 3.33382885 -0.042721 1.66611905 0 0 Z " fill="#9BADBE" transform="translate(483,837)"/>
<path d="M0 0 C0.99 0.33 1.98 0.66 3 1 C3 5.62 3 10.24 3 15 C-0.2605096 11.7394904 -0.05467405 8.10916255 -0.0625 3.6875 C-0.041875 2.470625 -0.02125 1.25375 0 0 Z " fill="#AEBECE" transform="translate(629,533)"/>
<path d="M0 0 C0 3 0 3 -1.75 4.82421875 C-2.4925 5.43910156 -3.235 6.05398438 -4 6.6875 C-4.7425 7.31011719 -5.485 7.93273437 -6.25 8.57421875 C-6.8275 9.04472656 -7.405 9.51523437 -8 10 C-8.66 9.67 -9.32 9.34 -10 9 C-6.7 6.03 -3.4 3.06 0 0 Z " fill="#405C6C" transform="translate(805,792)"/>
</svg>
